:SAMPLES-PER-SECOND 30
:FULLY-SPECIFIED
:DEGREES
154
root  -12.7116 40.9657 -8.06523 -47.1145 -85.8163 46.5065
RightUpLeg  -2.90858 -11.6252 -13.3553
RightLeg  3.19384 -3.65694 2.42554
RightFoot  3.58061 -0.702607 5.54751
RightToes  0.00048216 0.542163 -0.142577
Spine  4.76861 2.05547 10.4562
Spine1  13.1552 4.7746 -7.53675
HEad  -11.4338 -4.21349 -5.45339
LeftShoulder1  8.53951 -13.4129 -43.9426
LeftArm  -9.6782 22.3597 -27.8267
LeftForeArm  32.0879 -21.7684 -3.24379
LeftHand  -0.25398 0.0180481 5.50724
RightShoulder  3.90776 7.56148 29.3383
RightArm  -22.8164 53.8405 31.233
RightForeArm  5.90014 60.7895 20.2014
RightHand  -1.75639 3.78525 -22.2863
LeftUpLeg  -0.0664625 3.56311 0.0146782
LeftLeg  1.7137 9.35281 -4.0598
LeftFoot  -1.068 -0.0252706 0.356034
LeftToes  1.06246e-005 4.65855e-005 -8.18503e-006
155
root  -12.7097 40.9527 -7.97012 -40.898 -85.3396 40.0603
RightUpLeg  -2.50755 -11.756 -13.6164
RightLeg  3.30652 -4.10153 2.41543
RightFoot  3.47748 -0.721583 5.72661
RightToes  0.00048216 0.542163 -0.142577
Spine  4.81568 1.90205 10.096
Spine1  13.2365 4.61682 -7.55855
HEad  -11.6919 -4.05993 -4.9419
LeftShoulder1  8.53556 -13.3587 -44.0697
LeftArm  -9.80529 22.2107 -27.5848
LeftForeArm  31.9719 -22.4648 -3.27144
LeftHand  -0.25398 0.0180481 5.50724
RightShoulder  4.18012 7.98806 30.4157
RightArm  -20.5768 48.557 30.3828
RightForeArm  16.8253 69.1736 30.0926
RightHand  -1.81527 3.63639 -23.3428
LeftUpLeg  -0.0313807 3.50539 -0.122906
LeftLeg  2.04383 8.76463 -3.99347
LeftFoot  -1.24326 -0.0383342 0.518055
LeftToes  1.06246e-005 4.65855e-005 -8.18503e-006
156
root  -12.7304 40.9447 -7.87656 -36.163 -84.8729 35.0134
RightUpLeg  -1.90666 -11.8136 -13.844
RightLeg  3.24157 -4.54279 2.37448
RightFoot  3.41348 -0.740561 5.89461
RightToes  0.00048216 0.542163 -0.142577
Spine  4.74227 1.7924 9.70176
Spine1  13.5029 4.4798 -7.47963
HEad  -11.9883 -4.12359 -4.56792
LeftShoulder1  8.51005 -13.2655 -44.1877
LeftArm  -9.85173 21.5363 -27.471
LeftForeArm  32.2514 -22.5911 -3.26859
LeftHand  -0.25398 0.0180481 5.50724
RightShoulder  4.56217 8.52017 31.9992
RightArm  -17.1869 41.663 29.6147
RightForeArm  36.3554 75.5913 46.6475
RightHand  -2.02391 4.26472 -24.3382
LeftUpLeg  0.158754 3.48317 -0.221361
LeftLeg  2.32897 8.19596 -3.94841
LeftFoot  -1.40997 -0.0526944 0.708422
LeftToes  1.06246e-005 4.65855e-005 -8.18503e-006
157
root  -12.7664 40.9374 -7.7834 -33.0075 -84.4316 31.6703
RightUpLeg  -1.43842 -11.8284 -14.0494
RightLeg  3.16508 -4.95441 2.27878
RightFoot  3.34695 -0.763127 6.09275
RightToes  0.00048216 0.542163 -0.142577
Spine  4.47549 1.7173 9.2525
Spine1  13.7296 4.35693 -7.39048
HEad  -12.3049 -4.28114 -4.24374
LeftShoulder1  8.45953 -13.1474 -44.239
LeftArm  -10.0716 20.759 -27.5407
LeftForeArm  32.5468 -22.5168 -3.24892
LeftHand  -0.25398 0.0180481 5.50724
RightShoulder  5.0397 9.12223 33.9637
RightArm  -13.2886 33.529 29.0395
RightForeArm  63.5047 78.9005 66.7667
RightHand  -2.01925 4.49605 -23.7267
LeftUpLeg  0.286944 3.48578 -0.326662
LeftLeg  2.54066 7.6813 -3.99043
LeftFoot  -1.55387 -0.0693972 0.942579
LeftToes  1.06246e-005 4.65855e-005 -8.18503e-006
158
root  -12.8097 40.9302 -7.6946 -30.7853 -84.0907 29.409
RightUpLeg  -1.14103 -11.8396 -14.2065
RightLeg  3.06228 -5.2797 2.20863
RightFoot  3.29954 -0.789008 6.31096
RightToes  0.00048216 0.542163 -0.142577
Spine  4.06443 1.66345 8.84224
Spine1  13.9088 4.25893 -7.35735
HEad  -12.6417 -4.52243 -3.99689
LeftShoulder1  8.3928 -13.018 -44.2334
LeftArm  -10.3203 20.0542 -27.7528
LeftForeArm  32.5313 -22.5328 -3.24955
LeftHand  -0.25398 0.0180481 5.50724
RightShoulder  5.62339 9.7723 36.3638
RightArm  -9.72439 24.987 28.4077
RightForeArm  81.949 79.9139 75.3753
RightHand  -1.92593 4.76655 -22.122
LeftUpLeg  0.292902 3.52172 -0.398019
LeftLeg  2.72619 7.2437 -4.07702
LeftFoot  -1.70177 -0.0849802 1.16074
LeftToes  1.06246e-005 4.65855e-005 -8.18503e-006
159
root  -12.8561 40.9264 -7.61405 -28.7147 -83.8808 27.2987
RightUpLeg  -0.793543 -11.8315 -14.2817
RightLeg  2.80293 -5.53605 2.21649
RightFoot  3.32947 -0.811066 6.47048
RightToes  0.00048216 0.542163 -0.142577
Spine  3.64749 1.64958 8.46487
Spine1  14.1895 4.17409 -7.208
HEad  -13.1165 -4.94157 -3.95279
LeftShoulder1  8.34914 -12.8942 -44.3402
LeftArm  -10.3234 19.2723 -27.9576
LeftForeArm  32.4635 -22.6702 -3.26341
LeftHand  -0.25398 0.0180481 5.50724
RightShoulder  6.17127 10.2681 38.7402
RightArm  -6.91164 16.6353 27.9417
RightForeArm  76.0721 79.3108 61.5509
RightHand  -2.02466 5.81669 -21.1432
LeftUpLeg  0.306695 3.55982 -0.401946
LeftLeg  2.91803 6.90605 -4.09256
LeftFoot  -1.86326 -0.0953453 1.29938
LeftToes  1.06246e-005 4.65855e-005 -8.18503e-006
160
root  -12.8993 40.926 -7.53668 -27.1565 -83.7608 25.6279
RightUpLeg  -0.368524 -11.7996 -14.3327
RightLeg  2.46489 -5.72778 2.23346
RightFoot  3.4113 -0.825697 6.55135
RightToes  0.00048216 0.542163 -0.142577
Spine  3.244 1.62046 7.84521
Spine1  14.5903 3.97274 -6.71759
HEad  -13.7525 -5.293 -4.03703
LeftShoulder1  8.35476 -12.7915 -44.6641
LeftArm  -10.2855 18.5149 -28.0504
LeftForeArm  32.7369 -23.0061 -3.28219
LeftHand  -0.25398 0.0180481 5.50724
RightShoulder  6.48349 10.4186 40.4113
RightArm  -4.77389 9.87507 28.2844
RightForeArm  53.0439 73.6899 34.5787
RightHand  -1.96018 6.20676 -19.7888
LeftUpLeg  0.42119 3.51985 -0.438707
LeftLeg  3.05882 6.74718 -4.00473
LeftFoot  -2.00251 -0.102523 1.39022
LeftToes  1.06246e-005 4.65855e-005 -8.18503e-006
161
root  -12.9302 40.9247 -7.45483 -27.1267 -83.7654 25.4704
RightUpLeg  -0.075726 -11.779 -14.4379
RightLeg  2.26538 -5.73431 2.17937
RightFoot  3.46781 -0.83928 6.63333
RightToes  0.00048216 0.542163 -0.142577
Spine  2.74136 1.46619 6.80802
Spine1  14.9715 3.52697 -5.91342
HEad  -14.1607 -5.12295 -4.12192
LeftShoulder1  8.40265 -12.7361 -45.0906
LeftArm  -10.4434 18.1439 -28.088
LeftForeArm  32.9928 -23.5564 -3.33674
LeftHand  -0.25398 0.0180481 5.50724
RightShoulder  6.60253 10.392 41.2977
RightArm  -2.6934 7.19587 29.7174
RightForeArm  36.1906 58.2832 15.4021
RightHand  -1.41923 4.82491 -16.3339
LeftUpLeg  0.606566 3.40967 -0.589959
LeftLeg  3.08514 6.84722 -3.91318
LeftFoot  -2.1014 -0.110607 1.49707
LeftToes  1.06246e-005 4.65855e-005 -8.18503e-006
162
root  -12.943 40.919 -7.37066 -28.92 -84.059 27.123
RightUpLeg  0.0133548 -11.7602 -14.5424
RightLeg  2.23297 -5.40284 2.07806
RightFoot  3.49801 -0.858205 6.76615
RightToes  0.00048216 0.542163 -0.142577
Spine  2.28152 1.31473 5.84352
Spine1  15.1528 3.10195 -5.18817
HEad  -13.8628 -4.78711 -4.25164
LeftShoulder1  8.482 -12.7899 -45.3771
LeftArm  -10.1216 17.9485 -28.2764
LeftForeArm  32.5792 -23.7935 -3.3932
LeftHand  -0.25398 0.0180481 5.50724
RightShoulder  6.76821 10.6066 41.7202
RightArm  -2.49391 8.67484 31.7595
RightForeArm  28.4253 32.8148 6.31125
RightHand  -1.02403 3.64215 -13.4596
LeftUpLeg  0.828469 3.38736 -0.728354
LeftLeg  3.08331 7.19079 -3.91704
LeftFoot  -2.22774 -0.119065 1.61183
LeftToes  1.06246e-005 4.65855e-005 -8.18503e-006
163
root  -12.94 40.9082 -7.29052 -31.8832 -84.6554 29.8816
RightUpLeg  0.0404562 -11.6978 -14.5504
RightLeg  2.21679 -4.79511 1.99753
RightFoot  3.56147 -0.879512 6.90281
RightToes  0.00048216 0.542163 -0.142577
Spine  2.35373 1.56506 5.83643
Spine1  14.9616 3.33992 -5.13682
HEad  -13.1376 -5.59081 -4.19879
LeftShoulder1  8.56994 -12.9978 -45.2674
LeftArm  -8.35036 17.034 -28.8024
LeftForeArm  31.9222 -23.0924 -3.34943
LeftHand  -0.25398 0.0180481 5.50724
RightShoulder  7.023 11.1392 41.7173
RightArm  -11.9843 9.50136 33.0737
RightForeArm  25.1388 6.9074 4.04226
RightHand  -1.04134 2.92175 -14.9282
LeftUpLeg  1.05388 3.53947 -0.713557
LeftLeg  3.22275 7.65591 -3.98889
LeftFoot  -2.44925 -0.126796 1.71754
LeftToes  1.06246e-005 4.65855e-005 -8.18503e-006
164
root  -12.9342 40.8962 -7.21129 -33.9995 -85.1174 31.8363
RightUpLeg  0.10941 -11.646 -14.5506
RightLeg  2.11707 -4.33116 1.96896
RightFoot  3.66395 -0.898271 7.00257
RightToes  0.00048216 0.542163 -0.142577
Spine  3.11717 2.26922 6.91093
Spine1  14.4087 4.39139 -5.99817
HEad  -13.1189 -8.07122 -3.22722
LeftShoulder1  8.60774 -13.2717 -44.702
LeftArm  -5.8626 15.0988 -29.5487
LeftForeArm  32.5158 -21.9538 -3.29489
LeftHand  -0.25398 0.0180481 5.50724
RightShoulder  7.12418 11.4775 41.3318
RightArm  -24.0189 4.30933 33.4141
RightForeArm  12.4966 -4.41829 0.488253
RightHand  -1.18306 1.20772 -20.4358
LeftUpLeg  1.13785 3.67796 -0.682354
LeftLeg  3.49959 7.9865 -4.02555
LeftFoot  -2.68111 -0.138496 1.88744
LeftToes  1.06246e-005 4.65855e-005 -8.18503e-006
165
root  -12.9458 40.8898 -7.1275 -32.0093 -84.8039 29.9574
RightUpLeg  0.239157 -11.7353 -14.7357
RightLeg  1.90036 -4.57745 2.00881
RightFoot  3.74466 -0.917118 7.11078
RightToes  0.00048216 0.542163 -0.142577
Spine  3.86107 2.75974 7.87526
Spine1  13.8452 5.26599 -6.98351
HEad  -14.6137 -10.7439 -1.09222
LeftShoulder1  8.5704 -13.3917 -44.1671
LeftArm  -4.64227 13.3046 -29.9617
LeftForeArm  34.4884 -22.0737 -3.24365
LeftHand  -0.25398 0.0180481 5.50724
RightShoulder  6.92441 11.1622 41.0152
RightArm  -27.1549 -5.92226 33.4779
RightForeArm  -5.04024 -0.7056 0.790962
RightHand  -1.77014 2.93356 -24.8556
LeftUpLeg  0.899971 3.54394 -0.876608
LeftLeg  3.71525 7.79331 -3.98571
LeftFoot  -2.7494 -0.157785 2.17798
LeftToes  1.06246e-005 4.65855e-005 -8.18503e-006
